#Pillar_14502_31.obj

v 3.606857 0.1534873 0.1934731
v 3.483008 -0.1534873 0.1934731
v 3.483008 0.1534873 0.1934731
v 3.606857 -0.1534873 0.1934731
v 3.606857 0.1534873 -0.1934751
v 3.606857 -0.1534873 0.1934731
v 3.606857 0.1534873 0.1934731
v 3.606857 -0.1534873 -0.1934751
v 3.483008 0.1534873 -0.1934751
v 3.606857 -0.1534873 -0.1934751
v 3.606857 0.1534873 -0.1934751
v 3.483008 -0.1534873 -0.1934751
v 3.483008 0.1534873 0.1934731
v 3.483008 -0.1534873 -0.1934751
v 3.483008 0.1534873 -0.1934751
v 3.483008 -0.1534873 0.1934731
v 3.606857 0.1534873 -0.1934751
v 3.483008 0.1534873 0.1934731
v 3.483008 0.1534873 -0.1934751
v 3.606857 0.1534873 0.1934731
v 3.606857 -0.1534873 0.1934731
v 3.483008 -0.1534873 -0.1934751
v 3.483008 -0.1534873 0.1934731
v 3.606857 -0.1534873 -0.1934751
v 3.02523 0.1534873 0.1934731
v 2.90138 -0.1534873 0.1934731
v 2.90138 0.1534873 0.1934731
v 3.02523 -0.1534873 0.1934731
v 3.02523 0.1534873 -0.1934751
v 3.02523 -0.1534873 0.1934731
v 3.02523 0.1534873 0.1934731
v 3.02523 -0.1534873 -0.1934751
v 2.90138 0.1534873 -0.1934751
v 3.02523 -0.1534873 -0.1934751
v 3.02523 0.1534873 -0.1934751
v 2.90138 -0.1534873 -0.1934751
v 2.90138 0.1534873 0.1934731
v 2.90138 -0.1534873 -0.1934751
v 2.90138 0.1534873 -0.1934751
v 2.90138 -0.1534873 0.1934731
v 3.02523 0.1534873 -0.1934751
v 2.90138 0.1534873 0.1934731
v 2.90138 0.1534873 -0.1934751
v 3.02523 0.1534873 0.1934731
v 3.02523 -0.1534873 0.1934731
v 2.90138 -0.1534873 -0.1934751
v 2.90138 -0.1534873 0.1934731
v 3.02523 -0.1534873 -0.1934751
v -0.1889084 0.1534873 0.1934738
v -0.3127577 -0.1534873 0.1934738
v -0.3127577 0.1534873 0.1934738
v -0.1889084 -0.1534873 0.1934738
v -0.1889084 0.1534873 -0.1934745
v -0.1889084 -0.1534873 0.1934738
v -0.1889084 0.1534873 0.1934738
v -0.1889084 -0.1534873 -0.1934745
v -0.3127578 0.1534873 -0.1934745
v -0.1889084 -0.1534873 -0.1934745
v -0.1889084 0.1534873 -0.1934745
v -0.3127578 -0.1534873 -0.1934745
v -0.3127577 0.1534873 0.1934738
v -0.3127578 -0.1534873 -0.1934745
v -0.3127578 0.1534873 -0.1934745
v -0.3127577 -0.1534873 0.1934738
v -0.1889084 0.1534873 -0.1934745
v -0.3127577 0.1534873 0.1934738
v -0.3127578 0.1534873 -0.1934745
v -0.1889084 0.1534873 0.1934738
v -0.1889084 -0.1534873 0.1934738
v -0.3127578 -0.1534873 -0.1934745
v -0.3127577 -0.1534873 0.1934738
v -0.1889084 -0.1534873 -0.1934745
v 0.4281676 0.1534873 0.1934731
v 0.3043181 -0.1534873 0.1934731
v 0.3043181 0.1534873 0.1934731
v 0.4281676 -0.1534873 0.1934731
v 0.4281675 0.1534873 -0.1934751
v 0.4281676 -0.1534873 0.1934731
v 0.4281676 0.1534873 0.1934731
v 0.4281675 -0.1534873 -0.1934751
v 0.3043181 0.1534873 -0.1934751
v 0.4281675 -0.1534873 -0.1934751
v 0.4281675 0.1534873 -0.1934751
v 0.3043181 -0.1534873 -0.1934751
v 0.3043181 0.1534873 0.1934731
v 0.3043181 -0.1534873 -0.1934751
v 0.3043181 0.1534873 -0.1934751
v 0.3043181 -0.1534873 0.1934731
v 0.4281675 0.1534873 -0.1934751
v 0.3043181 0.1534873 0.1934731
v 0.3043181 0.1534873 -0.1934751
v 0.4281676 0.1534873 0.1934731
v 0.4281676 -0.1534873 0.1934731
v 0.3043181 -0.1534873 -0.1934751
v 0.3043181 -0.1534873 0.1934731
v 0.4281675 -0.1534873 -0.1934751
v 1.021834 0.1534873 0.1934731
v 0.8979849 -0.1534873 0.1934731
v 0.8979849 0.1534873 0.1934731
v 1.021834 -0.1534873 0.1934731
v 1.021834 0.1534873 -0.1934751
v 1.021834 -0.1534873 0.1934731
v 1.021834 0.1534873 0.1934731
v 1.021834 -0.1534873 -0.1934751
v 0.8979849 0.1534873 -0.1934751
v 1.021834 -0.1534873 -0.1934751
v 1.021834 0.1534873 -0.1934751
v 0.8979849 -0.1534873 -0.1934751
v 0.8979849 0.1534873 0.1934731
v 0.8979849 -0.1534873 -0.1934751
v 0.8979849 0.1534873 -0.1934751
v 0.8979849 -0.1534873 0.1934731
v 1.021834 0.1534873 -0.1934751
v 0.8979849 0.1534873 0.1934731
v 0.8979849 0.1534873 -0.1934751
v 1.021834 0.1534873 0.1934731
v 1.021834 -0.1534873 0.1934731
v 0.8979849 -0.1534873 -0.1934751
v 0.8979849 -0.1534873 0.1934731
v 1.021834 -0.1534873 -0.1934751
v 1.717472 0.1534873 0.1934731
v 1.593623 -0.1534873 0.1934731
v 1.593623 0.1534873 0.1934731
v 1.717472 -0.1534873 0.1934731
v 1.717472 0.1534873 -0.1934751
v 1.717472 -0.1534873 0.1934731
v 1.717472 0.1534873 0.1934731
v 1.717472 -0.1534873 -0.1934751
v 1.593623 0.1534873 -0.1934751
v 1.717472 -0.1534873 -0.1934751
v 1.717472 0.1534873 -0.1934751
v 1.593623 -0.1534873 -0.1934751
v 1.593623 0.1534873 0.1934731
v 1.593623 -0.1534873 -0.1934751
v 1.593623 0.1534873 -0.1934751
v 1.593623 -0.1534873 0.1934731
v 1.717472 0.1534873 -0.1934751
v 1.593623 0.1534873 0.1934731
v 1.593623 0.1534873 -0.1934751
v 1.717472 0.1534873 0.1934731
v 1.717472 -0.1534873 0.1934731
v 1.593623 -0.1534873 -0.1934751
v 1.593623 -0.1534873 0.1934731
v 1.717472 -0.1534873 -0.1934751
v 2.488766 0.1534873 0.1934731
v 2.364916 -0.1534873 0.1934731
v 2.364916 0.1534873 0.1934731
v 2.488766 -0.1534873 0.1934731
v 2.488766 0.1534873 -0.1934751
v 2.488766 -0.1534873 0.1934731
v 2.488766 0.1534873 0.1934731
v 2.488766 -0.1534873 -0.1934751
v 2.364916 0.1534873 -0.1934751
v 2.488766 -0.1534873 -0.1934751
v 2.488766 0.1534873 -0.1934751
v 2.364916 -0.1534873 -0.1934751
v 2.364916 0.1534873 0.1934731
v 2.364916 -0.1534873 -0.1934751
v 2.364916 0.1534873 -0.1934751
v 2.364916 -0.1534873 0.1934731
v 2.488766 0.1534873 -0.1934751
v 2.364916 0.1534873 0.1934731
v 2.364916 0.1534873 -0.1934751
v 2.488766 0.1534873 0.1934731
v 2.488766 -0.1534873 0.1934731
v 2.364916 -0.1534873 -0.1934751
v 2.364916 -0.1534873 0.1934731
v 2.488766 -0.1534873 -0.1934751
v -0.8759651 0.1534873 0.1934738
v -0.9998147 -0.1534873 0.1934738
v -0.9998147 0.1534873 0.1934738
v -0.8759651 -0.1534873 0.1934738
v -0.8759651 0.1534873 -0.1934745
v -0.8759651 -0.1534873 0.1934738
v -0.8759651 0.1534873 0.1934738
v -0.8759651 -0.1534873 -0.1934745
v -0.9998147 0.1534873 -0.1934745
v -0.8759651 -0.1534873 -0.1934745
v -0.8759651 0.1534873 -0.1934745
v -0.9998147 -0.1534873 -0.1934745
v -0.9998147 0.1534873 0.1934738
v -0.9998147 -0.1534873 -0.1934745
v -0.9998147 0.1534873 -0.1934745
v -0.9998147 -0.1534873 0.1934738
v -0.8759651 0.1534873 -0.1934745
v -0.9998147 0.1534873 0.1934738
v -0.9998147 0.1534873 -0.1934745
v -0.8759651 0.1534873 0.1934738
v -0.8759651 -0.1534873 0.1934738
v -0.9998147 -0.1534873 -0.1934745
v -0.9998147 -0.1534873 0.1934738
v -0.8759651 -0.1534873 -0.1934745
v -1.647259 0.1534873 0.1934738
v -1.771108 -0.1534873 0.1934738
v -1.771108 0.1534873 0.1934738
v -1.647259 -0.1534873 0.1934738
v -1.647259 0.1534873 -0.1934745
v -1.647259 -0.1534873 0.1934738
v -1.647259 0.1534873 0.1934738
v -1.647259 -0.1534873 -0.1934745
v -1.771108 0.1534873 -0.1934745
v -1.647259 -0.1534873 -0.1934745
v -1.647259 0.1534873 -0.1934745
v -1.771108 -0.1534873 -0.1934745
v -1.771108 0.1534873 0.1934738
v -1.771108 -0.1534873 -0.1934745
v -1.771108 0.1534873 -0.1934745
v -1.771108 -0.1534873 0.1934738
v -1.647259 0.1534873 -0.1934745
v -1.771108 0.1534873 0.1934738
v -1.771108 0.1534873 -0.1934745
v -1.647259 0.1534873 0.1934738
v -1.647259 -0.1534873 0.1934738
v -1.771108 -0.1534873 -0.1934745
v -1.771108 -0.1534873 0.1934738
v -1.647259 -0.1534873 -0.1934745
v -2.342896 0.1534873 0.1934738
v -2.466746 -0.1534873 0.1934738
v -2.466746 0.1534873 0.1934738
v -2.342896 -0.1534873 0.1934738
v -2.342896 0.1534873 -0.1934745
v -2.342896 -0.1534873 0.1934738
v -2.342896 0.1534873 0.1934738
v -2.342896 -0.1534873 -0.1934745
v -2.466746 0.1534873 -0.1934745
v -2.342896 -0.1534873 -0.1934745
v -2.342896 0.1534873 -0.1934745
v -2.466746 -0.1534873 -0.1934745
v -2.466746 0.1534873 0.1934738
v -2.466746 -0.1534873 -0.1934745
v -2.466746 0.1534873 -0.1934745
v -2.466746 -0.1534873 0.1934738
v -2.342896 0.1534873 -0.1934745
v -2.466746 0.1534873 0.1934738
v -2.466746 0.1534873 -0.1934745
v -2.342896 0.1534873 0.1934738
v -2.342896 -0.1534873 0.1934738
v -2.466746 -0.1534873 -0.1934745
v -2.466746 -0.1534873 0.1934738
v -2.342896 -0.1534873 -0.1934745
v -2.936563 0.1534873 0.1934738
v -3.060413 -0.1534873 0.1934738
v -3.060413 0.1534873 0.1934738
v -2.936563 -0.1534873 0.1934738
v -2.936563 0.1534873 -0.1934745
v -2.936563 -0.1534873 0.1934738
v -2.936563 0.1534873 0.1934738
v -2.936563 -0.1534873 -0.1934745
v -3.060413 0.1534873 -0.1934745
v -2.936563 -0.1534873 -0.1934745
v -2.936563 0.1534873 -0.1934745
v -3.060413 -0.1534873 -0.1934745
v -3.060413 0.1534873 0.1934738
v -3.060413 -0.1534873 -0.1934745
v -3.060413 0.1534873 -0.1934745
v -3.060413 -0.1534873 0.1934738
v -2.936563 0.1534873 -0.1934745
v -3.060413 0.1534873 0.1934738
v -3.060413 0.1534873 -0.1934745
v -2.936563 0.1534873 0.1934738
v -2.936563 -0.1534873 0.1934738
v -3.060413 -0.1534873 -0.1934745
v -3.060413 -0.1534873 0.1934738
v -2.936563 -0.1534873 -0.1934745
v -3.553639 0.1534873 0.1934738
v -3.677489 -0.1534873 0.1934738
v -3.677489 0.1534873 0.1934738
v -3.553639 -0.1534873 0.1934738
v -3.553639 0.1534873 -0.1934745
v -3.553639 -0.1534873 0.1934738
v -3.553639 0.1534873 0.1934738
v -3.553639 -0.1534873 -0.1934745
v -3.677489 0.1534873 -0.1934745
v -3.553639 -0.1534873 -0.1934745
v -3.553639 0.1534873 -0.1934745
v -3.677489 -0.1534873 -0.1934745
v -3.677489 0.1534873 0.1934738
v -3.677489 -0.1534873 -0.1934745
v -3.677489 0.1534873 -0.1934745
v -3.677489 -0.1534873 0.1934738
v -3.553639 0.1534873 -0.1934745
v -3.677489 0.1534873 0.1934738
v -3.677489 0.1534873 -0.1934745
v -3.553639 0.1534873 0.1934738
v -3.553639 -0.1534873 0.1934738
v -3.677489 -0.1534873 -0.1934745
v -3.677489 -0.1534873 0.1934738
v -3.553639 -0.1534873 -0.1934745

vn -1 0 1.192093E-07
vn -1 0 1.192093E-07
vn -1 0 1.192093E-07
vn -1 0 1.192093E-07
vn 1.192093E-07 0 1
vn 1.192093E-07 0 1
vn 1.192093E-07 0 1
vn 1.192093E-07 0 1
vn 1 0 -1.192093E-07
vn 1 0 -1.192093E-07
vn 1 0 -1.192093E-07
vn 1 0 -1.192093E-07
vn -1.192093E-07 0 -1
vn -1.192093E-07 0 -1
vn -1.192093E-07 0 -1
vn -1.192093E-07 0 -1
vn 0 1 0
vn 0 1 0
vn 0 1 0
vn 0 1 0
vn 0 -1 0
vn 0 -1 0
vn 0 -1 0
vn 0 -1 0
vn -1 0 1.192093E-07
vn -1 0 1.192093E-07
vn -1 0 1.192093E-07
vn -1 0 1.192093E-07
vn 1.192093E-07 0 1
vn 1.192093E-07 0 1
vn 1.192093E-07 0 1
vn 1.192093E-07 0 1
vn 1 0 -1.192093E-07
vn 1 0 -1.192093E-07
vn 1 0 -1.192093E-07
vn 1 0 -1.192093E-07
vn -1.192093E-07 0 -1
vn -1.192093E-07 0 -1
vn -1.192093E-07 0 -1
vn -1.192093E-07 0 -1
vn 0 1 0
vn 0 1 0
vn 0 1 0
vn 0 1 0
vn 0 -1 0
vn 0 -1 0
vn 0 -1 0
vn 0 -1 0
vn -1 0 1.192093E-07
vn -1 0 1.192093E-07
vn -1 0 1.192093E-07
vn -1 0 1.192093E-07
vn 1.192093E-07 0 1
vn 1.192093E-07 0 1
vn 1.192093E-07 0 1
vn 1.192093E-07 0 1
vn 1 0 -1.192093E-07
vn 1 0 -1.192093E-07
vn 1 0 -1.192093E-07
vn 1 0 -1.192093E-07
vn -1.192093E-07 0 -1
vn -1.192093E-07 0 -1
vn -1.192093E-07 0 -1
vn -1.192093E-07 0 -1
vn 0 1 0
vn 0 1 0
vn 0 1 0
vn 0 1 0
vn 0 -1 0
vn 0 -1 0
vn 0 -1 0
vn 0 -1 0
vn -1 0 1.192093E-07
vn -1 0 1.192093E-07
vn -1 0 1.192093E-07
vn -1 0 1.192093E-07
vn 1.192093E-07 0 1
vn 1.192093E-07 0 1
vn 1.192093E-07 0 1
vn 1.192093E-07 0 1
vn 1 0 -1.192093E-07
vn 1 0 -1.192093E-07
vn 1 0 -1.192093E-07
vn 1 0 -1.192093E-07
vn -1.192093E-07 0 -1
vn -1.192093E-07 0 -1
vn -1.192093E-07 0 -1
vn -1.192093E-07 0 -1
vn 0 1 0
vn 0 1 0
vn 0 1 0
vn 0 1 0
vn 0 -1 0
vn 0 -1 0
vn 0 -1 0
vn 0 -1 0
vn -1 0 1.192093E-07
vn -1 0 1.192093E-07
vn -1 0 1.192093E-07
vn -1 0 1.192093E-07
vn 1.192093E-07 0 1
vn 1.192093E-07 0 1
vn 1.192093E-07 0 1
vn 1.192093E-07 0 1
vn 1 0 -1.192093E-07
vn 1 0 -1.192093E-07
vn 1 0 -1.192093E-07
vn 1 0 -1.192093E-07
vn -1.192093E-07 0 -1
vn -1.192093E-07 0 -1
vn -1.192093E-07 0 -1
vn -1.192093E-07 0 -1
vn 0 1 0
vn 0 1 0
vn 0 1 0
vn 0 1 0
vn 0 -1 0
vn 0 -1 0
vn 0 -1 0
vn 0 -1 0
vn -1 0 1.192093E-07
vn -1 0 1.192093E-07
vn -1 0 1.192093E-07
vn -1 0 1.192093E-07
vn 1.192093E-07 0 1
vn 1.192093E-07 0 1
vn 1.192093E-07 0 1
vn 1.192093E-07 0 1
vn 1 0 -1.192093E-07
vn 1 0 -1.192093E-07
vn 1 0 -1.192093E-07
vn 1 0 -1.192093E-07
vn -1.192093E-07 0 -1
vn -1.192093E-07 0 -1
vn -1.192093E-07 0 -1
vn -1.192093E-07 0 -1
vn 0 1 0
vn 0 1 0
vn 0 1 0
vn 0 1 0
vn 0 -1 0
vn 0 -1 0
vn 0 -1 0
vn 0 -1 0
vn -1 0 1.192093E-07
vn -1 0 1.192093E-07
vn -1 0 1.192093E-07
vn -1 0 1.192093E-07
vn 1.192093E-07 0 1
vn 1.192093E-07 0 1
vn 1.192093E-07 0 1
vn 1.192093E-07 0 1
vn 1 0 -1.192093E-07
vn 1 0 -1.192093E-07
vn 1 0 -1.192093E-07
vn 1 0 -1.192093E-07
vn -1.192093E-07 0 -1
vn -1.192093E-07 0 -1
vn -1.192093E-07 0 -1
vn -1.192093E-07 0 -1
vn 0 1 0
vn 0 1 0
vn 0 1 0
vn 0 1 0
vn 0 -1 0
vn 0 -1 0
vn 0 -1 0
vn 0 -1 0
vn -1 0 1.192093E-07
vn -1 0 1.192093E-07
vn -1 0 1.192093E-07
vn -1 0 1.192093E-07
vn 1.192093E-07 0 1
vn 1.192093E-07 0 1
vn 1.192093E-07 0 1
vn 1.192093E-07 0 1
vn 1 0 -1.192093E-07
vn 1 0 -1.192093E-07
vn 1 0 -1.192093E-07
vn 1 0 -1.192093E-07
vn -1.192093E-07 0 -1
vn -1.192093E-07 0 -1
vn -1.192093E-07 0 -1
vn -1.192093E-07 0 -1
vn 0 1 0
vn 0 1 0
vn 0 1 0
vn 0 1 0
vn 0 -1 0
vn 0 -1 0
vn 0 -1 0
vn 0 -1 0
vn -1 0 1.192093E-07
vn -1 0 1.192093E-07
vn -1 0 1.192093E-07
vn -1 0 1.192093E-07
vn 1.192093E-07 0 1
vn 1.192093E-07 0 1
vn 1.192093E-07 0 1
vn 1.192093E-07 0 1
vn 1 0 -1.192093E-07
vn 1 0 -1.192093E-07
vn 1 0 -1.192093E-07
vn 1 0 -1.192093E-07
vn -1.192093E-07 0 -1
vn -1.192093E-07 0 -1
vn -1.192093E-07 0 -1
vn -1.192093E-07 0 -1
vn 0 1 0
vn 0 1 0
vn 0 1 0
vn 0 1 0
vn 0 -1 0
vn 0 -1 0
vn 0 -1 0
vn 0 -1 0
vn -1 0 1.192093E-07
vn -1 0 1.192093E-07
vn -1 0 1.192093E-07
vn -1 0 1.192093E-07
vn 1.192093E-07 0 1
vn 1.192093E-07 0 1
vn 1.192093E-07 0 1
vn 1.192093E-07 0 1
vn 1 0 -1.192093E-07
vn 1 0 -1.192093E-07
vn 1 0 -1.192093E-07
vn 1 0 -1.192093E-07
vn -1.192093E-07 0 -1
vn -1.192093E-07 0 -1
vn -1.192093E-07 0 -1
vn -1.192093E-07 0 -1
vn 0 1 0
vn 0 1 0
vn 0 1 0
vn 0 1 0
vn 0 -1 0
vn 0 -1 0
vn 0 -1 0
vn 0 -1 0
vn -1 0 1.192093E-07
vn -1 0 1.192093E-07
vn -1 0 1.192093E-07
vn -1 0 1.192093E-07
vn 1.192093E-07 0 1
vn 1.192093E-07 0 1
vn 1.192093E-07 0 1
vn 1.192093E-07 0 1
vn 1 0 -1.192093E-07
vn 1 0 -1.192093E-07
vn 1 0 -1.192093E-07
vn 1 0 -1.192093E-07
vn -1.192093E-07 0 -1
vn -1.192093E-07 0 -1
vn -1.192093E-07 0 -1
vn -1.192093E-07 0 -1
vn 0 1 0
vn 0 1 0
vn 0 1 0
vn 0 1 0
vn 0 -1 0
vn 0 -1 0
vn 0 -1 0
vn 0 -1 0
vn -1 0 1.192093E-07
vn -1 0 1.192093E-07
vn -1 0 1.192093E-07
vn -1 0 1.192093E-07
vn 1.192093E-07 0 1
vn 1.192093E-07 0 1
vn 1.192093E-07 0 1
vn 1.192093E-07 0 1
vn 1 0 -1.192093E-07
vn 1 0 -1.192093E-07
vn 1 0 -1.192093E-07
vn 1 0 -1.192093E-07
vn -1.192093E-07 0 -1
vn -1.192093E-07 0 -1
vn -1.192093E-07 0 -1
vn -1.192093E-07 0 -1
vn 0 1 0
vn 0 1 0
vn 0 1 0
vn 0 1 0
vn 0 -1 0
vn 0 -1 0
vn 0 -1 0
vn 0 -1 0

vt 1 1
vt 0 0
vt 0 1
vt 1 0
vt 1 1
vt 0 0
vt 0 1
vt 1 0
vt 1 1
vt 0 0
vt 0 1
vt 1 0
vt 1 1
vt 0 0
vt 0 1
vt 1 0
vt 1 1
vt 0 0
vt 0 1
vt 1 0
vt 1 1
vt 0 0
vt 0 1
vt 1 0
vt 1 1
vt 0 0
vt 0 1
vt 1 0
vt 1 1
vt 0 0
vt 0 1
vt 1 0
vt 1 1
vt 0 0
vt 0 1
vt 1 0
vt 1 1
vt 0 0
vt 0 1
vt 1 0
vt 1 1
vt 0 0
vt 0 1
vt 1 0
vt 1 1
vt 0 0
vt 0 1
vt 1 0
vt 1 1
vt 0 0
vt 0 1
vt 1 0
vt 1 1
vt 0 0
vt 0 1
vt 1 0
vt 1 1
vt 0 0
vt 0 1
vt 1 0
vt 1 1
vt 0 0
vt 0 1
vt 1 0
vt 1 1
vt 0 0
vt 0 1
vt 1 0
vt 1 1
vt 0 0
vt 0 1
vt 1 0
vt 1 1
vt 0 0
vt 0 1
vt 1 0
vt 1 1
vt 0 0
vt 0 1
vt 1 0
vt 1 1
vt 0 0
vt 0 1
vt 1 0
vt 1 1
vt 0 0
vt 0 1
vt 1 0
vt 1 1
vt 0 0
vt 0 1
vt 1 0
vt 1 1
vt 0 0
vt 0 1
vt 1 0
vt 1 1
vt 0 0
vt 0 1
vt 1 0
vt 1 1
vt 0 0
vt 0 1
vt 1 0
vt 1 1
vt 0 0
vt 0 1
vt 1 0
vt 1 1
vt 0 0
vt 0 1
vt 1 0
vt 1 1
vt 0 0
vt 0 1
vt 1 0
vt 1 1
vt 0 0
vt 0 1
vt 1 0
vt 1 1
vt 0 0
vt 0 1
vt 1 0
vt 1 1
vt 0 0
vt 0 1
vt 1 0
vt 1 1
vt 0 0
vt 0 1
vt 1 0
vt 1 1
vt 0 0
vt 0 1
vt 1 0
vt 1 1
vt 0 0
vt 0 1
vt 1 0
vt 1 1
vt 0 0
vt 0 1
vt 1 0
vt 1 1
vt 0 0
vt 0 1
vt 1 0
vt 1 1
vt 0 0
vt 0 1
vt 1 0
vt 1 1
vt 0 0
vt 0 1
vt 1 0
vt 1 1
vt 0 0
vt 0 1
vt 1 0
vt 1 1
vt 0 0
vt 0 1
vt 1 0
vt 1 1
vt 0 0
vt 0 1
vt 1 0
vt 1 1
vt 0 0
vt 0 1
vt 1 0
vt 1 1
vt 0 0
vt 0 1
vt 1 0
vt 1 1
vt 0 0
vt 0 1
vt 1 0
vt 1 1
vt 0 0
vt 0 1
vt 1 0
vt 1 1
vt 0 0
vt 0 1
vt 1 0
vt 1 1
vt 0 0
vt 0 1
vt 1 0
vt 1 1
vt 0 0
vt 0 1
vt 1 0
vt 1 1
vt 0 0
vt 0 1
vt 1 0
vt 1 1
vt 0 0
vt 0 1
vt 1 0
vt 1 1
vt 0 0
vt 0 1
vt 1 0
vt 1 1
vt 0 0
vt 0 1
vt 1 0
vt 1 1
vt 0 0
vt 0 1
vt 1 0
vt 1 1
vt 0 0
vt 0 1
vt 1 0
vt 1 1
vt 0 0
vt 0 1
vt 1 0
vt 1 1
vt 0 0
vt 0 1
vt 1 0
vt 1 1
vt 0 0
vt 0 1
vt 1 0
vt 1 1
vt 0 0
vt 0 1
vt 1 0
vt 1 1
vt 0 0
vt 0 1
vt 1 0
vt 1 1
vt 0 0
vt 0 1
vt 1 0
vt 1 1
vt 0 0
vt 0 1
vt 1 0
vt 1 1
vt 0 0
vt 0 1
vt 1 0
vt 1 1
vt 0 0
vt 0 1
vt 1 0
vt 1 1
vt 0 0
vt 0 1
vt 1 0
vt 1 1
vt 0 0
vt 0 1
vt 1 0
vt 1 1
vt 0 0
vt 0 1
vt 1 0
vt 1 1
vt 0 0
vt 0 1
vt 1 0
vt 1 1
vt 0 0
vt 0 1
vt 1 0
vt 1 1
vt 0 0
vt 0 1
vt 1 0
vt 1 1
vt 0 0
vt 0 1
vt 1 0
vt 1 1
vt 0 0
vt 0 1
vt 1 0

g Pillar_14502_31
usemtl Pillar_14502_31
usemap Pillar_14502_31
f 1/1/1 3/3/3 2/2/2
f 4/4/4 1/1/1 2/2/2
f 5/5/5 7/7/7 6/6/6
f 8/8/8 5/5/5 6/6/6
f 9/9/9 11/11/11 10/10/10
f 12/12/12 9/9/9 10/10/10
f 13/13/13 15/15/15 14/14/14
f 16/16/16 13/13/13 14/14/14
f 17/17/17 19/19/19 18/18/18
f 20/20/20 17/17/17 18/18/18
f 21/21/21 23/23/23 22/22/22
f 24/24/24 21/21/21 22/22/22
f 25/25/25 27/27/27 26/26/26
f 28/28/28 25/25/25 26/26/26
f 29/29/29 31/31/31 30/30/30
f 32/32/32 29/29/29 30/30/30
f 33/33/33 35/35/35 34/34/34
f 36/36/36 33/33/33 34/34/34
f 37/37/37 39/39/39 38/38/38
f 40/40/40 37/37/37 38/38/38
f 41/41/41 43/43/43 42/42/42
f 44/44/44 41/41/41 42/42/42
f 45/45/45 47/47/47 46/46/46
f 48/48/48 45/45/45 46/46/46
f 49/49/49 51/51/51 50/50/50
f 52/52/52 49/49/49 50/50/50
f 53/53/53 55/55/55 54/54/54
f 56/56/56 53/53/53 54/54/54
f 57/57/57 59/59/59 58/58/58
f 60/60/60 57/57/57 58/58/58
f 61/61/61 63/63/63 62/62/62
f 64/64/64 61/61/61 62/62/62
f 65/65/65 67/67/67 66/66/66
f 68/68/68 65/65/65 66/66/66
f 69/69/69 71/71/71 70/70/70
f 72/72/72 69/69/69 70/70/70
f 73/73/73 75/75/75 74/74/74
f 76/76/76 73/73/73 74/74/74
f 77/77/77 79/79/79 78/78/78
f 80/80/80 77/77/77 78/78/78
f 81/81/81 83/83/83 82/82/82
f 84/84/84 81/81/81 82/82/82
f 85/85/85 87/87/87 86/86/86
f 88/88/88 85/85/85 86/86/86
f 89/89/89 91/91/91 90/90/90
f 92/92/92 89/89/89 90/90/90
f 93/93/93 95/95/95 94/94/94
f 96/96/96 93/93/93 94/94/94
f 97/97/97 99/99/99 98/98/98
f 100/100/100 97/97/97 98/98/98
f 101/101/101 103/103/103 102/102/102
f 104/104/104 101/101/101 102/102/102
f 105/105/105 107/107/107 106/106/106
f 108/108/108 105/105/105 106/106/106
f 109/109/109 111/111/111 110/110/110
f 112/112/112 109/109/109 110/110/110
f 113/113/113 115/115/115 114/114/114
f 116/116/116 113/113/113 114/114/114
f 117/117/117 119/119/119 118/118/118
f 120/120/120 117/117/117 118/118/118
f 121/121/121 123/123/123 122/122/122
f 124/124/124 121/121/121 122/122/122
f 125/125/125 127/127/127 126/126/126
f 128/128/128 125/125/125 126/126/126
f 129/129/129 131/131/131 130/130/130
f 132/132/132 129/129/129 130/130/130
f 133/133/133 135/135/135 134/134/134
f 136/136/136 133/133/133 134/134/134
f 137/137/137 139/139/139 138/138/138
f 140/140/140 137/137/137 138/138/138
f 141/141/141 143/143/143 142/142/142
f 144/144/144 141/141/141 142/142/142
f 145/145/145 147/147/147 146/146/146
f 148/148/148 145/145/145 146/146/146
f 149/149/149 151/151/151 150/150/150
f 152/152/152 149/149/149 150/150/150
f 153/153/153 155/155/155 154/154/154
f 156/156/156 153/153/153 154/154/154
f 157/157/157 159/159/159 158/158/158
f 160/160/160 157/157/157 158/158/158
f 161/161/161 163/163/163 162/162/162
f 164/164/164 161/161/161 162/162/162
f 165/165/165 167/167/167 166/166/166
f 168/168/168 165/165/165 166/166/166
f 169/169/169 171/171/171 170/170/170
f 172/172/172 169/169/169 170/170/170
f 173/173/173 175/175/175 174/174/174
f 176/176/176 173/173/173 174/174/174
f 177/177/177 179/179/179 178/178/178
f 180/180/180 177/177/177 178/178/178
f 181/181/181 183/183/183 182/182/182
f 184/184/184 181/181/181 182/182/182
f 185/185/185 187/187/187 186/186/186
f 188/188/188 185/185/185 186/186/186
f 189/189/189 191/191/191 190/190/190
f 192/192/192 189/189/189 190/190/190
f 193/193/193 195/195/195 194/194/194
f 196/196/196 193/193/193 194/194/194
f 197/197/197 199/199/199 198/198/198
f 200/200/200 197/197/197 198/198/198
f 201/201/201 203/203/203 202/202/202
f 204/204/204 201/201/201 202/202/202
f 205/205/205 207/207/207 206/206/206
f 208/208/208 205/205/205 206/206/206
f 209/209/209 211/211/211 210/210/210
f 212/212/212 209/209/209 210/210/210
f 213/213/213 215/215/215 214/214/214
f 216/216/216 213/213/213 214/214/214
f 217/217/217 219/219/219 218/218/218
f 220/220/220 217/217/217 218/218/218
f 221/221/221 223/223/223 222/222/222
f 224/224/224 221/221/221 222/222/222
f 225/225/225 227/227/227 226/226/226
f 228/228/228 225/225/225 226/226/226
f 229/229/229 231/231/231 230/230/230
f 232/232/232 229/229/229 230/230/230
f 233/233/233 235/235/235 234/234/234
f 236/236/236 233/233/233 234/234/234
f 237/237/237 239/239/239 238/238/238
f 240/240/240 237/237/237 238/238/238
f 241/241/241 243/243/243 242/242/242
f 244/244/244 241/241/241 242/242/242
f 245/245/245 247/247/247 246/246/246
f 248/248/248 245/245/245 246/246/246
f 249/249/249 251/251/251 250/250/250
f 252/252/252 249/249/249 250/250/250
f 253/253/253 255/255/255 254/254/254
f 256/256/256 253/253/253 254/254/254
f 257/257/257 259/259/259 258/258/258
f 260/260/260 257/257/257 258/258/258
f 261/261/261 263/263/263 262/262/262
f 264/264/264 261/261/261 262/262/262
f 265/265/265 267/267/267 266/266/266
f 268/268/268 265/265/265 266/266/266
f 269/269/269 271/271/271 270/270/270
f 272/272/272 269/269/269 270/270/270
f 273/273/273 275/275/275 274/274/274
f 276/276/276 273/273/273 274/274/274
f 277/277/277 279/279/279 278/278/278
f 280/280/280 277/277/277 278/278/278
f 281/281/281 283/283/283 282/282/282
f 284/284/284 281/281/281 282/282/282
f 285/285/285 287/287/287 286/286/286
f 288/288/288 285/285/285 286/286/286
