#step8_14786_39.obj

v 6.593401 1.296082 0.003853451
v -6.593401 -1.296082 0.00385218
v -6.593401 1.296082 0.00385218
v 6.593401 -1.296082 0.003853451
v 6.593401 1.296082 -0.003852237
v 6.593401 -1.296082 0.003853451
v 6.593401 1.296082 0.003853451
v 6.593401 -1.296082 -0.003852237
v -6.593401 1.296082 -0.003853509
v 6.593401 -1.296082 -0.003852237
v 6.593401 1.296082 -0.003852237
v -6.593401 -1.296082 -0.003853509
v -6.593401 1.296082 0.00385218
v -6.593401 -1.296082 -0.003853509
v -6.593401 1.296082 -0.003853509
v -6.593401 -1.296082 0.00385218
v 6.593401 1.296082 -0.003852237
v -6.593401 1.296082 0.00385218
v -6.593401 1.296082 -0.003853509
v 6.593401 1.296082 0.003853451
v 6.593401 -1.296082 0.003853451
v -6.593401 -1.296082 -0.003853509
v -6.593401 -1.296082 0.00385218
v 6.593401 -1.296082 -0.003852237

vn 1 0 1.192093E-07
vn 1 0 1.192093E-07
vn 1 0 1.192093E-07
vn 1 0 1.192093E-07
vn 1.192093E-07 0 -1
vn 1.192093E-07 0 -1
vn 1.192093E-07 0 -1
vn 1.192093E-07 0 -1
vn -1 0 -1.192093E-07
vn -1 0 -1.192093E-07
vn -1 0 -1.192093E-07
vn -1 0 -1.192093E-07
vn -1.192093E-07 0 1
vn -1.192093E-07 0 1
vn -1.192093E-07 0 1
vn -1.192093E-07 0 1
vn 0 1 0
vn 0 1 0
vn 0 1 0
vn 0 1 0
vn 0 -1 0
vn 0 -1 0
vn 0 -1 0
vn 0 -1 0

vt 1 1
vt 0 0
vt 0 1
vt 1 0
vt 1 1
vt 0 0
vt 0 1
vt 1 0
vt 1 1
vt 0 0
vt 0 1
vt 1 0
vt 1 1
vt 0 0
vt 0 1
vt 1 0
vt 1 1
vt 0 0
vt 0 1
vt 1 0
vt 1 1
vt 0 0
vt 0 1
vt 1 0

g step8_14786_39
usemtl step8_14786_39
usemap step8_14786_39
f 1/1/1 3/3/3 2/2/2
f 4/4/4 1/1/1 2/2/2
f 5/5/5 7/7/7 6/6/6
f 8/8/8 5/5/5 6/6/6
f 9/9/9 11/11/11 10/10/10
f 12/12/12 9/9/9 10/10/10
f 13/13/13 15/15/15 14/14/14
f 16/16/16 13/13/13 14/14/14
f 17/17/17 19/19/19 18/18/18
f 20/20/20 17/17/17 18/18/18
f 21/21/21 23/23/23 22/22/22
f 24/24/24 21/21/21 22/22/22
