#step7_14532_35.obj

v 6.593401 1.086633 0.4096693
v -6.593401 -1.086633 0.4096681
v -6.593401 1.086633 0.4096681
v 6.593401 -1.086633 0.4096693
v 6.593401 1.086633 -0.4096679
v 6.593401 -1.086633 0.4096693
v 6.593401 1.086633 0.4096693
v 6.593401 -1.086633 -0.4096679
v -6.593401 1.086633 -0.4096692
v 6.593401 -1.086633 -0.4096679
v 6.593401 1.086633 -0.4096679
v -6.593401 -1.086633 -0.4096692
v -6.593401 1.086633 0.4096681
v -6.593401 -1.086633 -0.4096692
v -6.593401 1.086633 -0.4096692
v -6.593401 -1.086633 0.4096681
v 6.593401 1.086633 -0.4096679
v -6.593401 1.086633 0.4096681
v -6.593401 1.086633 -0.4096692
v 6.593401 1.086633 0.4096693
v 6.593401 -2.795097 0.4096693
v -6.593401 -2.795097 -0.4096692
v -6.593401 -2.795097 0.4096681
v 6.593401 -2.795097 -0.4096679
v 6.593401 -2.795097 -0.4096679
v -6.593401 -1.086633 -0.4096692
v -6.593401 -2.795097 -0.4096692
v 6.593401 -1.086633 -0.4096679
v 6.593401 -2.795097 0.4096693
v 6.593401 -1.086633 -0.4096679
v 6.593401 -2.795097 -0.4096679
v 6.593401 -1.086633 0.4096693
v -6.593401 -2.795097 0.4096681
v 6.593401 -1.086633 0.4096693
v 6.593401 -2.795097 0.4096693
v -6.593401 -1.086633 0.4096681
v -6.593401 -2.795097 -0.4096692
v -6.593401 -1.086633 0.4096681
v -6.593401 -2.795097 0.4096681
v -6.593401 -1.086633 -0.4096692

vn 1 0 1.192093E-07
vn 1 0 1.192093E-07
vn 1 0 1.192093E-07
vn 1 0 1.192093E-07
vn 1.192093E-07 0 -1
vn 1.192093E-07 0 -1
vn 1.192093E-07 0 -1
vn 1.192093E-07 0 -1
vn -1 0 -1.192093E-07
vn -1 0 -1.192093E-07
vn -1 0 -1.192093E-07
vn -1 0 -1.192093E-07
vn -1.192093E-07 0 1
vn -1.192093E-07 0 1
vn -1.192093E-07 0 1
vn -1.192093E-07 0 1
vn 0 1 0
vn 0 1 0
vn 0 1 0
vn 0 1 0
vn 0 -1 0
vn 0 -1 0
vn 0 -1 0
vn 0 -1 0
vn -1 0 -1.192093E-07
vn -1 0 -1.192093E-07
vn -1 0 -1.192093E-07
vn -1 0 -1.192093E-07
vn 1.192093E-07 0 -1
vn 1.192093E-07 0 -1
vn 1.192093E-07 0 -1
vn 1.192093E-07 0 -1
vn 1 0 1.192093E-07
vn 1 0 1.192093E-07
vn 1 0 1.192093E-07
vn 1 0 1.192093E-07
vn -1.192093E-07 0 1
vn -1.192093E-07 0 1
vn -1.192093E-07 0 1
vn -1.192093E-07 0 1

vt 1 1
vt 0 0
vt 0 1
vt 1 0
vt 1 1
vt 0 0
vt 0 1
vt 1 0
vt 1 1
vt 0 0
vt 0 1
vt 1 0
vt 1 1
vt 0 0
vt 0 1
vt 1 0
vt 1 1
vt 0 0
vt 0 1
vt 1 0
vt 1 1
vt 0 0
vt 0 1
vt 1 0
vt 1 0
vt 0 0
vt 0 0
vt 1 0
vt 1 1
vt 1 0
vt 1 0
vt 1 1
vt 0 1
vt 1 1
vt 1 1
vt 0 1
vt 0 0
vt 0 1
vt 0 1
vt 0 0

g step7_14532_35
usemtl step7_14532_35
usemap step7_14532_35
f 1/1/1 3/3/3 2/2/2
f 4/4/4 1/1/1 2/2/2
f 5/5/5 7/7/7 6/6/6
f 8/8/8 5/5/5 6/6/6
f 9/9/9 11/11/11 10/10/10
f 12/12/12 9/9/9 10/10/10
f 13/13/13 15/15/15 14/14/14
f 16/16/16 13/13/13 14/14/14
f 17/17/17 19/19/19 18/18/18
f 20/20/20 17/17/17 18/18/18
f 21/21/21 23/23/23 22/22/22
f 24/24/24 21/21/21 22/22/22
f 25/25/25 27/27/27 26/26/26
f 28/28/28 25/25/25 26/26/26
f 29/29/29 31/31/31 30/30/30
f 32/32/32 29/29/29 30/30/30
f 33/33/33 35/35/35 34/34/34
f 36/36/36 33/33/33 34/34/34
f 37/37/37 39/39/39 38/38/38
f 40/40/40 37/37/37 38/38/38
