#挤压_2_14565_50.obj

v -0.04517364 -0.1129339 -0.006932947
v -0.1026673 -0.1129339 0.00693291
v -0.04517374 -0.1129339 0.006932868
v -0.1026672 -0.1129339 -0.006932905
v -0.0232712 -0.07871149 -0.006932939
v -0.04517374 -0.1129339 0.006932868
v -0.02327131 -0.07871149 0.006932876
v -0.04517364 -0.1129339 -0.006932947
v 0.1040361 -0.07871149 -0.006932906
v -0.02327131 -0.07871149 0.006932876
v 0.104036 -0.07871149 0.006932909
v -0.0232712 -0.07871149 -0.006932939
v 0.1054051 0.09787616 -0.006932916
v 0.104036 -0.07871149 0.006932909
v 0.105405 0.09787616 0.006932899
v 0.1040361 -0.07871149 -0.006932906
v 0.05886241 0.112934 -0.006932789
v 0.105405 0.09787616 0.006932899
v 0.05886254 0.112934 0.006932822
v 0.1054051 0.09787616 -0.006932916
v -0.07939613 0.1101962 -0.006932826
v 0.05886254 0.112934 0.006932822
v -0.07939599 0.1101962 0.006932785
v 0.05886241 0.112934 -0.006932789
v -0.1054051 0.06502264 -0.006932886
v -0.07939599 0.1101962 0.006932785
v -0.1054052 0.06502264 0.006932929
v -0.07939613 0.1101962 -0.006932826
v -0.1026672 -0.1129339 -0.006932905
v -0.1054052 0.06502264 0.006932929
v -0.1026673 -0.1129339 0.00693291
v -0.1054051 0.06502264 -0.006932886
v 0.05886254 0.112934 0.006932822
v -0.1054052 0.06502264 0.006932929
v -0.07939599 0.1101962 0.006932785
v -0.02327131 -0.07871149 0.006932876
v -0.1026673 -0.1129339 0.00693291
v -0.04517374 -0.1129339 0.006932868
v 0.104036 -0.07871149 0.006932909
v 0.105405 0.09787616 0.006932899
v -0.0232712 -0.07871149 -0.006932939
v -0.1026672 -0.1129339 -0.006932905
v -0.04517364 -0.1129339 -0.006932947
v -0.1054051 0.06502264 -0.006932886
v 0.05886241 0.112934 -0.006932789
v -0.07939613 0.1101962 -0.006932826
v 0.1040361 -0.07871149 -0.006932906
v 0.1054051 0.09787616 -0.006932916

vn 0 -1 0
vn 0 -1 0
vn 0 -1 0
vn 0 -1 0
vn 0.6464844 -0.5390625 0.5395508
vn 0.6464844 -0.5390625 0.5395508
vn 0.6464844 -0.5390625 0.5395508
vn 0.6464844 -0.5390625 0.5395508
vn 0 -1 0
vn 0 -1 0
vn 0 -1 0
vn 0 -1 0
vn 0.7675781 -0.007751465 0.640625
vn 0.7675781 -0.007751465 0.640625
vn 0.7675781 -0.007751465 0.640625
vn 0.7675781 -0.007751465 0.640625
vn 0.2363281 0.9516602 0.1972656
vn 0.2363281 0.9516602 0.1972656
vn 0.2363281 0.9516602 0.1972656
vn 0.2363281 0.9516602 0.1972656
vn -0.01519775 1 -0.01268768
vn -0.01519775 1 -0.01268768
vn -0.01519775 1 -0.01268768
vn -0.01519775 1 -0.01268768
vn -0.6655273 0.4990234 -0.5551758
vn -0.6655273 0.4990234 -0.5551758
vn -0.6655273 0.4990234 -0.5551758
vn -0.6655273 0.4990234 -0.5551758
vn -0.7675781 -0.01538086 -0.640625
vn -0.7675781 -0.01538086 -0.640625
vn -0.7675781 -0.01538086 -0.640625
vn -0.7675781 -0.01538086 -0.640625
vn -0.640625 0 0.7675781
vn -0.640625 0 0.7675781
vn -0.640625 0 0.7675781
vn -0.640625 0 0.7675781
vn -0.640625 0 0.7675781
vn -0.640625 0 0.7675781
vn -0.640625 0 0.7675781
vn -0.640625 0 0.7675781
vn 0.640625 0 -0.7675781
vn 0.640625 0 -0.7675781
vn 0.640625 0 -0.7675781
vn 0.640625 0 -0.7675781
vn 0.640625 0 -0.7675781
vn 0.640625 0 -0.7675781
vn 0.640625 0 -0.7675781
vn 0.640625 0 -0.7675781

vt 0.07019043 0
vt 0 1
vt 0.07019043 1
vt 0 0
vt 0.119751 0
vt 0.07019043 1
vt 0.119751 1
vt 0.07019043 0
vt 0.2751465 0
vt 0.119751 1
vt 0.2751465 1
vt 0.119751 0
vt 0.4907227 0
vt 0.2751465 1
vt 0.4907227 1
vt 0.2751465 0
vt 0.550293 0
vt 0.4907227 1
vt 0.550293 1
vt 0.4907227 0
vt 0.7192383 0
vt 0.550293 1
vt 0.7192383 1
vt 0.550293 0
vt 0.7827148 0
vt 0.7192383 1
vt 0.7827148 1
vt 0.7192383 0
vt 1 0
vt 0.7827148 1
vt 1 1
vt 0.7827148 0
vt 0.7270508 1
vt 0 0.7880859
vt 0.1151733 0.987793
vt 0.3635254 0.1514893
vt 0.01212311 0
vt 0.2666016 0
vt 0.9272461 0.1514893
vt 0.9331055 0.9331055
vt 0.3635254 0.1514893
vt 0.01212311 0
vt 0.2666016 0
vt 0 0.7880859
vt 0.7270508 1
vt 0.1151733 0.987793
vt 0.9272461 0.1514893
vt 0.9331055 0.9331055

g 挤压_2_14565_50
usemtl 挤压_2_14565_50
usemap 挤压_2_14565_50
f 1/1/1 3/3/3 2/2/2
f 4/4/4 1/1/1 2/2/2
f 5/5/5 7/7/7 6/6/6
f 8/8/8 5/5/5 6/6/6
f 9/9/9 11/11/11 10/10/10
f 12/12/12 9/9/9 10/10/10
f 13/13/13 15/15/15 14/14/14
f 16/16/16 13/13/13 14/14/14
f 17/17/17 19/19/19 18/18/18
f 20/20/20 17/17/17 18/18/18
f 21/21/21 23/23/23 22/22/22
f 24/24/24 21/21/21 22/22/22
f 25/25/25 27/27/27 26/26/26
f 28/28/28 25/25/25 26/26/26
f 29/29/29 31/31/31 30/30/30
f 32/32/32 29/29/29 30/30/30
f 33/33/33 35/35/35 34/34/34
f 33/33/33 34/34/34 36/36/36
f 36/36/36 34/34/34 37/37/37
f 38/38/38 36/36/36 37/37/37
f 39/39/39 33/33/33 36/36/36
f 39/39/39 40/40/40 33/33/33
f 41/41/41 43/43/43 42/42/42
f 44/44/44 41/41/41 42/42/42
f 44/44/44 45/45/45 41/41/41
f 44/44/44 46/46/46 45/45/45
f 45/45/45 47/47/47 41/41/41
f 45/45/45 48/48/48 47/47/47
