#挤压_1_14517_37.obj

v 0.144818 -0.1018818 -0.1939678
v 0.1448179 0.1135257 7.330242E-08
v 0.144818 0.1135257 -0.1939678
v 0.1448179 -0.1018818 7.330242E-08
v 0.01382665 -0.1004264 -0.1939677
v 0.1448179 -0.1018818 7.330242E-08
v 0.144818 -0.1018818 -0.1939678
v 0.01382684 -0.1004264 -6.984723E-08
v -0.002183374 -0.11207 -0.1939677
v 0.01382684 -0.1004264 -6.984723E-08
v 0.01382665 -0.1004264 -0.1939677
v -0.002183187 -0.11207 -4.663544E-08
v -0.125897 -0.1135255 -0.1939678
v -0.002183187 -0.11207 -4.663544E-08
v -0.002183374 -0.11207 -0.1939677
v -0.125897 -0.1135255 2.170695E-08
v -0.144818 -0.09023816 -0.1939678
v -0.125897 -0.1135255 2.170695E-08
v -0.125897 -0.1135255 -0.1939678
v -0.1448181 -0.09023816 4.180466E-08
v -0.144818 0.08441655 -0.1939678
v -0.1448181 -0.09023816 4.180466E-08
v -0.144818 -0.09023816 -0.1939678
v -0.1448181 0.08441655 4.180466E-08
v 0.0895104 0.1135257 -0.1939677
v -0.1448181 0.08441655 4.180466E-08
v -0.144818 0.08441655 -0.1939678
v 0.08951059 0.1135257 -6.855426E-08
v 0.144818 0.1135257 -0.1939678
v 0.08951059 0.1135257 -6.855426E-08
v 0.0895104 0.1135257 -0.1939677
v 0.1448179 0.1135257 7.330242E-08
v 0.1448179 -0.1018818 7.330242E-08
v 0.08951059 0.1135257 -6.855426E-08
v 0.1448179 0.1135257 7.330242E-08
v 0.01382684 -0.1004264 -6.984723E-08
v -0.1448181 0.08441655 4.180466E-08
v -0.1448181 -0.09023816 4.180466E-08
v -0.002183187 -0.11207 -4.663544E-08
v -0.125897 -0.1135255 2.170695E-08
v 0.0895104 0.1135257 -0.1939677
v 0.144818 -0.1018818 -0.1939678
v 0.144818 0.1135257 -0.1939678
v 0.01382665 -0.1004264 -0.1939677
v -0.144818 0.08441655 -0.1939678
v -0.144818 -0.09023816 -0.1939678
v -0.002183374 -0.11207 -0.1939677
v -0.125897 -0.1135255 -0.1939678

vn 0.7675781 0 0.640625
vn 0.7675781 0 0.640625
vn 0.7675781 0 0.640625
vn 0.7675781 0 0.640625
vn -0.008529663 -1 -0.007118225
vn -0.008529663 -1 -0.007118225
vn -0.008529663 -1 -0.007118225
vn -0.008529663 -1 -0.007118225
vn 0.4516602 -0.8085938 0.3769531
vn 0.4516602 -0.8085938 0.3769531
vn 0.4516602 -0.8085938 0.3769531
vn 0.4516602 -0.8085938 0.3769531
vn 0.009033203 -1 0.007537842
vn 0.009033203 -1 0.007537842
vn 0.009033203 -1 0.007537842
vn 0.009033203 -1 0.007537842
vn -0.5957031 -0.6303711 -0.4973145
vn -0.5957031 -0.6303711 -0.4973145
vn -0.5957031 -0.6303711 -0.4973145
vn -0.5957031 -0.6303711 -0.4973145
vn -0.7675781 0 -0.640625
vn -0.7675781 0 -0.640625
vn -0.7675781 0 -0.640625
vn -0.7675781 0 -0.640625
vn -0.09466553 0.9921875 -0.07897949
vn -0.09466553 0.9921875 -0.07897949
vn -0.09466553 0.9921875 -0.07897949
vn -0.09466553 0.9921875 -0.07897949
vn 0 1 0
vn 0 1 0
vn 0 1 0
vn 0 1 0
vn -0.640625 0 0.7675781
vn -0.640625 0 0.7675781
vn -0.640625 0 0.7675781
vn -0.640625 0 0.7675781
vn -0.640625 0 0.7675781
vn -0.640625 0 0.7675781
vn -0.640625 0 0.7675781
vn -0.640625 0 0.7675781
vn 0.640625 0 -0.7675781
vn 0.640625 0 -0.7675781
vn 0.640625 0 -0.7675781
vn 0.640625 0 -0.7675781
vn 0.640625 0 -0.7675781
vn 0.640625 0 -0.7675781
vn 0.640625 0 -0.7675781
vn 0.640625 0 -0.7675781

vt 0.2185059 0
vt 0 1
vt 0 0
vt 0.2185059 1
vt 0.3513184 0
vt 0.2185059 1
vt 0.2185059 0
vt 0.3513184 1
vt 0.3713379 0
vt 0.3513184 1
vt 0.3513184 0
vt 0.3713379 1
vt 0.4968262 0
vt 0.3713379 1
vt 0.3713379 0
vt 0.4968262 1
vt 0.5273438 0
vt 0.4968262 1
vt 0.4968262 0
vt 0.5273438 1
vt 0.7045898 0
vt 0.5273438 1
vt 0.5273438 0
vt 0.7045898 1
vt 0.9438477 0
vt 0.7045898 1
vt 0.7045898 0
vt 0.9438477 1
vt 1 0
vt 0.9438477 1
vt 0.9438477 0
vt 1 1
vt 1 0.2563477
vt 0.809082 1
vt 1 1
vt 0.5478516 0.2612305
vt 0 0.8994141
vt 0 0.2963867
vt 0.4924316 0.2210693
vt 0.06530762 0.2160645
vt 0.8457031 0.3508301
vt 0.2744141 0
vt 0.8950195 0.1915283
vt 0.1619873 0.3786621
vt 0.5532227 1
vt 0.05026245 0.8447266
vt 0.1141968 0.4143066
vt 0 0.7695313

g 挤压_1_14517_37
usemtl 挤压_1_14517_37
usemap 挤压_1_14517_37
f 1/1/1 3/3/3 2/2/2
f 4/4/4 1/1/1 2/2/2
f 5/5/5 7/7/7 6/6/6
f 8/8/8 5/5/5 6/6/6
f 9/9/9 11/11/11 10/10/10
f 12/12/12 9/9/9 10/10/10
f 13/13/13 15/15/15 14/14/14
f 16/16/16 13/13/13 14/14/14
f 17/17/17 19/19/19 18/18/18
f 20/20/20 17/17/17 18/18/18
f 21/21/21 23/23/23 22/22/22
f 24/24/24 21/21/21 22/22/22
f 25/25/25 27/27/27 26/26/26
f 28/28/28 25/25/25 26/26/26
f 29/29/29 31/31/31 30/30/30
f 32/32/32 29/29/29 30/30/30
f 33/33/33 35/35/35 34/34/34
f 36/36/36 33/33/33 34/34/34
f 34/34/34 37/37/37 36/36/36
f 37/37/37 38/38/38 36/36/36
f 39/39/39 36/36/36 38/38/38
f 40/40/40 39/39/39 38/38/38
f 41/41/41 43/43/43 42/42/42
f 44/44/44 41/41/41 42/42/42
f 45/45/45 41/41/41 44/44/44
f 46/46/46 45/45/45 44/44/44
f 44/44/44 47/47/47 46/46/46
f 47/47/47 48/48/48 46/46/46
