#立方体_4_14825_29.obj

v 0.07592494 0.02383911 0.07979769
v -0.0759249 -0.02383888 0.07979771
v -0.07592491 0.02383899 0.07979758
v 0.07592496 -0.02383888 0.07979771
v 0.07592494 0.02383904 -0.07979747
v 0.07592496 -0.02383888 0.07979771
v 0.07592494 0.02383911 0.07979769
v 0.07592495 -0.02383883 -0.07979733
v -0.07592492 0.02383904 -0.07979747
v 0.07592495 -0.02383883 -0.07979733
v 0.07592494 0.02383904 -0.07979747
v -0.0759249 -0.02383896 -0.07979744
v -0.07592491 0.02383899 0.07979758
v -0.0759249 -0.02383896 -0.07979744
v -0.07592492 0.02383904 -0.07979747
v -0.0759249 -0.02383888 0.07979771
v 0.07592494 0.02383904 -0.07979747
v -0.07592491 0.02383899 0.07979758
v -0.07592492 0.02383904 -0.07979747
v 0.07592494 0.02383911 0.07979769
v 0.07592496 -0.02383888 0.07979771
v -0.0759249 -0.02383896 -0.07979744
v -0.0759249 -0.02383888 0.07979771
v 0.07592495 -0.02383883 -0.07979733

vn -0.640625 0 0.7675781
vn -0.640625 0 0.7675781
vn -0.640625 0 0.7675781
vn -0.640625 0 0.7675781
vn -1.192093E-07 1 -5.960464E-08
vn -1.192093E-07 1 -5.960464E-08
vn -1.192093E-07 1 -5.960464E-08
vn -1.192093E-07 1 -5.960464E-08
vn 0.640625 0 -0.7675781
vn 0.640625 0 -0.7675781
vn 0.640625 0 -0.7675781
vn 0.640625 0 -0.7675781
vn 1.192093E-07 -1 5.960464E-08
vn 1.192093E-07 -1 5.960464E-08
vn 1.192093E-07 -1 5.960464E-08
vn 1.192093E-07 -1 5.960464E-08
vn -0.7675781 -1.192093E-07 -0.640625
vn -0.7675781 -1.192093E-07 -0.640625
vn -0.7675781 -1.192093E-07 -0.640625
vn -0.7675781 -1.192093E-07 -0.640625
vn 0.7675781 1.192093E-07 0.640625
vn 0.7675781 1.192093E-07 0.640625
vn 0.7675781 1.192093E-07 0.640625
vn 0.7675781 1.192093E-07 0.640625

vt 1 1
vt 0 0
vt 0 1
vt 1 0
vt 1 1
vt 0 0
vt 0 1
vt 1 0
vt 1 1
vt 0 0
vt 0 1
vt 1 0
vt 1 1
vt 0 0
vt 0 1
vt 1 0
vt 1 1
vt 0 0
vt 0 1
vt 1 0
vt 1 1
vt 0 0
vt 0 1
vt 1 0

g 立方体_4_14825_29
usemtl 立方体_4_14825_29
usemap 立方体_4_14825_29
f 1/1/1 3/3/3 2/2/2
f 4/4/4 1/1/1 2/2/2
f 5/5/5 7/7/7 6/6/6
f 8/8/8 5/5/5 6/6/6
f 9/9/9 11/11/11 10/10/10
f 12/12/12 9/9/9 10/10/10
f 13/13/13 15/15/15 14/14/14
f 16/16/16 13/13/13 14/14/14
f 17/17/17 19/19/19 18/18/18
f 20/20/20 17/17/17 18/18/18
f 21/21/21 23/23/23 22/22/22
f 24/24/24 21/21/21 22/22/22
