#立方体_14879_55.obj

v 0.1947096 0.04475951 0.2095282
v -0.1947096 -0.04475951 0.2095283
v -0.1947096 0.04475951 0.2095283
v 0.1947096 -0.04475951 0.2095282
v 0.1947096 0.04475951 -0.2095281
v 0.1947096 -0.04475951 0.2095282
v 0.1947096 0.04475951 0.2095282
v 0.1947096 -0.04475951 -0.2095281
v -0.1947096 0.04475951 -0.209528
v 0.1947096 -0.04475951 -0.2095281
v 0.1947096 0.04475951 -0.2095281
v -0.1947096 -0.04475951 -0.209528
v -0.1947096 0.04475951 0.2095283
v -0.1947096 -0.04475951 -0.209528
v -0.1947096 0.04475951 -0.209528
v -0.1947096 -0.04475951 0.2095283
v 0.1947096 0.04475951 -0.2095281
v -0.1947096 0.04475951 0.2095283
v -0.1947096 0.04475951 -0.209528
v 0.1947096 0.04475951 0.2095282
v 0.1947096 -0.04475951 0.2095282
v -0.1947096 -0.04475951 -0.209528
v -0.1947096 -0.04475951 0.2095283
v 0.1947096 -0.04475951 -0.2095281

vn -0.640625 0 0.7675781
vn -0.640625 0 0.7675781
vn -0.640625 0 0.7675781
vn -0.640625 0 0.7675781
vn 0.7675781 0 0.640625
vn 0.7675781 0 0.640625
vn 0.7675781 0 0.640625
vn 0.7675781 0 0.640625
vn 0.640625 0 -0.7675781
vn 0.640625 0 -0.7675781
vn 0.640625 0 -0.7675781
vn 0.640625 0 -0.7675781
vn -0.7675781 0 -0.640625
vn -0.7675781 0 -0.640625
vn -0.7675781 0 -0.640625
vn -0.7675781 0 -0.640625
vn 0 1 0
vn 0 1 0
vn 0 1 0
vn 0 1 0
vn 0 -1 0
vn 0 -1 0
vn 0 -1 0
vn 0 -1 0

vt 1 1
vt 0 0
vt 0 1
vt 1 0
vt 1 1
vt 0 0
vt 0 1
vt 1 0
vt 1 1
vt 0 0
vt 0 1
vt 1 0
vt 1 1
vt 0 0
vt 0 1
vt 1 0
vt 1 1
vt 0 0
vt 0 1
vt 1 0
vt 1 1
vt 0 0
vt 0 1
vt 1 0

g 立方体_14879_55
usemtl 立方体_14879_55
usemap 立方体_14879_55
f 1/1/1 3/3/3 2/2/2
f 4/4/4 1/1/1 2/2/2
f 5/5/5 7/7/7 6/6/6
f 8/8/8 5/5/5 6/6/6
f 9/9/9 11/11/11 10/10/10
f 12/12/12 9/9/9 10/10/10
f 13/13/13 15/15/15 14/14/14
f 16/16/16 13/13/13 14/14/14
f 17/17/17 19/19/19 18/18/18
f 20/20/20 17/17/17 18/18/18
f 21/21/21 23/23/23 22/22/22
f 24/24/24 21/21/21 22/22/22
